<svg version="1.0" xmlns="http://www.w3.org/2000/svg" width="1706.667" height="854.667" viewBox="0 0 1280 641"><path d="M664.5.6C585.9 2.9 492.4 8.1 444 13.1c-18.7 1.9-47.8 8-66.2 13.9-20.6 6.6-31.8 19.3-60 68-20.6 35.6-29.7 51.6-39.3 69.5-5.1 9.3-11.5 20.5-14.3 24.9-2.9 4.3-5.2 8.3-5.2 8.8 0 1.2 4.7.2 7.5-1.7 1.1-.7 7.1-11.1 13.4-23.2 15-28.5 40-74.5 46.4-85.3 15-25.3 30-43.1 41.8-49.8 14.6-8.3 26.6-9.2 122.7-9.2 124.9 0 205.7 3.5 267.7 11.5 17.8 2.3 25.6 7.2 31.4 19.5 2.5 5.3 2.6 6.2 2.6 23 0 9.6-.6 21.3-1.3 26-6.9 44.4-15.4 94.6-16.8 98.1-2.7 6.9-5.9 10.5-12.1 13.5-5.6 2.6-6.4 2.7-20.8 2.5-10.4-.1-16.4.3-20 1.3-2.7.8-16.7 3.8-31 6.6-58.7 11.7-117.5 26.8-149 38.3-20.4 7.5-26.1 11.1-33.2 20.8l-4.6 6.2-30.6-.7c-48.7-1-289.8-8.9-388.6-12.7-15.9-.6-31-1.4-33.5-1.8l-4.5-.7.1-4.5c0-6.2 4.1-12.8 11.2-18.4 6.4-5.1 18.6-10.2 38.5-16.1 7-2.1 12.3-4 11.8-4.2-1.6-.5-37.6 9.3-53 14.4-13.6 4.5-21.8 8.5-29.9 14.4-3.2 2.3-5.2 4.9-7.4 9.6l-3.1 6.5.2 20.2c.1 11.1.6 24.9 1.2 30.5 1.3 13.6 9.2 56.5 12 65 1.2 3.7 2.3 7.3 2.5 8 .4 1.5 4.6 3.2 8 3.2h2.5l-2.2-2.9c-1.8-2.5-2.1-3.9-1.7-10.6.3-7.3.5-7.9 3.8-10.8l3.4-3 16.5.6 16.6.6 3.2 3.5c3 3.3 3.3 4.1 3.3 10.1 0 4-.6 7.8-1.7 10-.9 1.9-1.5 3.7-1.2 3.9.2.2 54.4 3 120.4 6 121.7 5.7 271.3 12.6 272.2 12.6.3 0-.7-1.4-2.2-3.2-2.5-2.9-2.7-3.8-2.3-10.4.3-5.9.8-7.7 2.7-9.8 4.4-4.6 6.8-5 23.9-3.7 26.5 2 27.7 2.7 27.7 15 0 6.9-.3 8.3-2.2 10.3-1.3 1.4-2.3 2.8-2.3 3.3 0 .7 21.8.1 22.6-.7.1-.2-.6-19-1.7-41.8-2.8-57.2-2-75 4-88.5 5.2-11.7 15-17.3 44.7-25.5 47.1-12.9 95.1-20.4 172.4-27.1 13.5-1.1 24.6-2.2 24.8-2.4.2-.2-1.8-3.1-4.3-6.6-3.5-4.8-4.5-6.9-4.1-8.9.3-1.4 4.4-25.5 9.1-53.5 17.3-102.7 20.4-116 28.5-122.8 9.1-7.7 24-8.8 114.5-9.1 59.8-.1 66.8.1 75 1.7 30.8 6.1 40.6 14.9 57 50.7 5.3 11.6 32.7 78 40.6 98.3l3.4 8.8 21.7-.3c11.9-.2 21.9-.6 22.3-1 .3-.3-2.3-4.8-5.8-10-10.1-14.7-19.8-31.4-42.6-73.1-29-53.3-37-66.5-43.4-71.5-7.1-5.7-32.1-16.3-50.2-21.3-12.8-3.5-45.8-9.8-67-12.8C878.3 4.3 825.6 1.1 737 .6c-33.8-.2-66.4-.2-72.5 0zM68.7 294.1c5.9 2.8 12.9 10.8 17 19.5 3.5 7.3 3.6 7.9 3.7 19.7.1 11.8 0 12.4-3.2 18.9-6.3 13-17.8 20.1-28.9 17.8-13.3-2.8-23.4-14.9-26.9-32.4-4-19.3 5.3-39.3 20.8-44.7 6.1-2.1 11.1-1.8 17.5 1.2zm439.4 17.5c6.9 3.8 13.4 11.1 17.6 19.9l3.5 7.5-.3 12.2c-.4 11.5-.6 12.6-3.3 17.3-1.6 2.7-5.5 7.6-8.6 10.7-4.6 4.5-6.9 6-11.5 7.4-7 2-16.4 1.5-21.5-1.1-5.3-2.7-15.4-13.4-18.6-19.5-2.5-4.9-2.8-6.8-3.2-17.7-.4-11.4-.3-12.4 2.2-17.8 4.8-10.6 13.2-18.8 21.5-21.2 6.8-1.9 16.2-.9 22.2 2.3z"/><path d="M439 39.7c-30.1.8-49.6 2.2-56 4.2-22.4 7-37.2 27.3-81 111.1-15.5 29.8-19.4 38.4-17.5 38.8.8.2 9.2-.2 18.7-.8 26.6-1.8 129.8-2.4 171.3-1.1 106.9 3.5 179.5 8.6 232 16.2 39.3 5.7 51.6 5.4 55.8-1.3 1.9-2.9 3.2-9.7 10.6-54.3 8-48.3 8.3-50.5 8.4-69.5.2-28.7-.4-29-52.3-34.5-40.3-4.2-76.3-5.9-169.9-8-61.4-1.4-90.8-1.6-120.1-.8zm496.8 9c-4.9.2-8.8.6-8.8.9 0 .7 4.5 24.3 16.9 88.4 13.5 69.7 14 72.4 15.3 73.5.9.8 5.7.9 16.8.4 37.2-1.9 57-3 63.8-3.6l7.4-.6-.7-4.6c-.4-2.5-2.2-12.5-4-22.1-1.9-9.6-5.7-29.4-8.5-44-7.4-38.8-16-81.1-16.5-82-2.8-4.5-47.6-7.9-81.7-6.3zm-85.3 1.4c-13.2.7-24.4 2.8-29.3 5.3-4 2.1-6.6 5.2-5.8 7.3.9 2.1 6.9 38.9 14.1 86.5 3.1 20 5.9 36.6 6.3 37 .4.4 3.2 1.2 6.1 1.8 12.5 2.4 17.1 8.1 17.1 21.3v7.7h2.8c12.3-.1 79.7-4.1 80.3-4.7.9-.9-15.7-91-29.2-158.1l-1-5.2-24.2.2c-13.3 0-30 .4-37.2.9zm174.5 7.5c0 1.1 9.5 51.8 19.1 101.9 5 25.8 9.4 47.4 9.9 47.9 1.1 1.1 42.4-1 44.6-2.2 1-.6-2.4-9.9-14.5-40.2-32.2-80.2-37.8-91.3-53.1-104.3-4.1-3.5-6-4.5-6-3.1zM808.7 83.8c-1.5 7-4.1 20.3-5.7 29.7-3.7 20.7-18 105.3-18 106 0 .3 1.8.5 4.1.5 3.4 0 4-.3 3.5-1.8-1.3-4.7-1.7-10.9-1.1-16.3.6-5 1.3-6.6 4-9.3 3.9-4 5.5-4.3 21.3-5.2 11-.6 12.2-.9 12.2-2.6 0-2.3-16.9-113-17.3-113.4-.2-.2-1.5 5.4-3 12.4zM340.5 202.6c-3.3.2-17 .8-30.5 1.4-32 1.5-40.2 2.4-51.3 6-14.9 4.7-40.8 11.4-79.2 20.5-80.4 19.1-102.6 25.7-115.2 34-4.9 3.2-8.4 7.7-7.1 9 .7.7 31.9 2 118.3 5 70 2.4 316.9 10.5 320.6 10.5 1.1 0 2.9-1.8 4.4-4.5 6.6-11.1 19.9-18.8 49.4-28.5 31.4-10.4 88-24.9 129.4-33.1 11.1-2.2 20.3-4.1 20.5-4.3.1-.2-3.2-.9-7.5-1.5-30.4-4.4-90.2-8.6-178.8-12.7-30.6-1.4-156.3-2.7-173-1.8zm810 7c-7.1.7-18.8 1.6-25.9 2.1l-13 .8 8 6.7 7.9 6.8h8c4.4 0 32.2.9 61.8 2.1 29.6 1.1 55.3 1.9 57 1.7 2.3-.2-1.5-1.7-14.3-5.5-22-6.6-34.8-9.7-52.5-12.7-19.6-3.4-22.3-3.5-37-2zm-123 5.5c-31.3 1.5-59.5 2.8-62.5 2.8l-5.5.1 6.2 6.2 6.1 6.1 24.9-1.1c13.6-.7 43.5-1.7 66.3-2.3 22.8-.5 44.4-1.3 48-1.6l6.4-.5-6.9-6.4-7-6.3-9.5.1c-5.2 0-35.1 1.3-66.5 2.9zm-83.8 3.7c-3.2.2-33.5 1.6-67.4 3.1l-61.6 2.8-2.1 2.8c-1.2 1.6-3.2 4.9-4.6 7.4-2.8 5.2-6.3 6.4-10.6 3.6-4.8-3.1-1.9-10.5 4.2-10.5 1.2 0 2.8-.7 3.5-1.6 1.2-1.5.4-1.6-9.6-.9-6.1.4-11.4 1-11.8 1.4-1.2 1.2.9 5.6 5.5 11.8l4.2 5.6 7.6-.6c4.1-.4 26.2-2.2 49-4.1 22.8-1.9 54.6-4.4 70.5-5.6 16-1.1 32.3-2.3 36.3-2.6l7.3-.6-6.2-5.6c-3.4-3.2-6.7-5.9-7.3-6.2-.6-.3-3.7-.4-6.9-.2zm184.9 44.4c-.4 17.8-1.1 35.6-1.6 39.7-.8 7-1 7.5-5.8 12.5-8.3 8.4-20.2 29.1-20.2 35.1 0 1.1 1.2 1.5 4.4 1.5 4.1 0 5-.6 11.4-6.4 8.5-7.8 15.2-11.1 26-12.6 14.5-2.1 24.1.2 32.9 8 4.5 3.9 4.8 4 11.9 4 7.3 0 44.7-3 65.1-5.3l10.8-1.2 1.2-7c.7-3.9 1.7-17.1 2.3-29.5.5-12.4 1.5-29.3 2-37.5 1.4-20.8 1.3-25-.6-26.5-1.8-1.6-13.6-2.2-75.4-4.4-23.9-.9-48-1.8-53.6-2.1l-10.1-.5-.7 32.2z"/><path d="M1050.5 232.7c-13.4.3-55.6 2.2-67.8 2.9-8.4.6-9.7.9-9.2 2.3 1.1 3.6 4.5 23.5 5.9 35.2 2.5 20.5 2.7 24.1 4 57.2.7 17.4 1.5 32 1.9 32.3 1 1 106.7-9.2 107.8-10.4.4-.4 2.2-4.3 3.9-8.7 4.6-11.3 11.1-22 18.6-30.4 6.3-7.1 6.4-7.2 6.5-13.4.1-3.4.4-14.4.8-24.5.3-10 .5-18.2.3-18.2s-1.5.9-3.1 2.1c-2.6 1.9-3.9 2-15.4 1.7-10.8-.3-12.8-.6-14.7-2.3-1.8-1.6-2.1-2.7-1.7-5.9 1-7 3-8.1 16.9-8.4 11-.3 12.3-.2 14.9 1.7 1.5 1.2 2.9 2.1 3.1 2.1.2 0 .1-3.5-.2-7.7l-.5-7.8h-31c-17-.1-35.5 0-41 .2zm-113.5 6c-26.1 1.5-123.4 9.3-137.7 11-2.9.3-5.3.9-5.3 1.2 0 .3 1.1 19.1 2.5 41.6 1.3 22.6 2.8 51.7 3.1 64.8l.7 23.8 4.1-.6c5.1-.7 97.9-9.5 136.6-13 15.7-1.3 30.5-2.8 32.9-3.1l4.4-.6-.6-29.6c-.7-33.1-3.8-71.2-5.8-71.2-.5 0-.9.6-.9 1.3 0 .8-1.2 2.4-2.6 3.8-2.4 2.3-3.2 2.4-15.6 2.4h-13l-2.9-3.3c-3.3-3.7-3.5-5.1-1.3-9.8 2.1-4.4 4.1-4.9 18.6-4.9 10.7 0 11.8.2 14 2.2 3.3 3.1 3.7 2.9 2.8-1.5-.5-2-1.3-6.3-2-9.5l-1.1-5.7-12.7.2c-7 .1-15.2.3-18.2.5zm-164 13c-1.9.2-11.6 1-21.5 1.9-19.5 1.7-54 5.4-72.5 7.9-41.6 5.5-91.8 17-112.7 25.7-13.8 5.7-19.6 14.3-21.5 32.3-1.6 14.8 1.4 104.1 3.7 109.7.7 1.8 2.5 2.3 12 3.3 8.1.9 15.3 3.8 20.4 8.1 2.4 2.1 4.6 3.3 5.1 2.8s2.5-4.7 4.5-9.3c13.8-32.4 29.5-57.5 46.4-74.1 13.4-13.2 23.2-17.6 44.7-20 12.2-1.4 17.8-.5 28 4.4 12.5 6 19.9 15.9 29.2 38.8 1.4 3.4.8 3.4 31.7.5l23-2.2.3-9c.6-15.4-3.2-95.3-5.4-115.8l-.6-5.7-5.6.2c-3.2 0-7.3.3-9.2.5zm367.5 89.6c-18.1 3.9-23.9 12.6-43.4 64.7-7.9 20.9-19.6 44.7-25.8 52.5-6.2 7.6-11.6 11.3-22.9 15.3-13 4.7-12.9 4.5-12.8 13.9.1 9.3 1.2 15 6.6 34.3 4.5 16.2 6.5 20.4 13.3 27.2 5.8 5.8 10.4 8.1 22 10.9 8.1 1.9 11 2.1 28.5 1.6 17.5-.4 20.4-.7 28.5-3.1 18.8-5.6 29.2-12.8 35.3-24.4 4-7.6 4.6-9.6 9.1-31.7 5.6-27.2 6.5-37.7 5.8-70.9-.8-41.9-5.6-72.7-13.1-84.1-4-6.1-18-8.9-31.1-6.2zm5.9 31.2c10.6 5.1 20.3 23.3 25.2 47.4 2.4 11.8 3 42.9 1 57.7-3.6 27.5-13.4 49.1-24.9 55.1-4.7 2.4-12.2 1.9-16.8-1.2-8.8-5.8-17.1-22.4-21.5-43-3.5-16.2-3.5-57.1 0-72 7.9-33.5 22.5-50.9 37-44z"/><path d="M671.6 349c-8.6 1.4-19.5 7.2-27.7 14.8-6.6 6.1-18.2 20-20.8 24.9l-1.1 2.2 25.3-.2c24.9-.2 25.3-.1 31.9 2.4 27.1 10.5 40.8 28.8 55.3 73.6 2 6.2 4 11.3 4.4 11.3 1.1 0 2-7.3 2.7-22.5 1.3-27.4-4.9-59-16.1-82-6-12.3-12-19.5-19-22.6-5.2-2.3-25.4-3.4-34.9-1.9zm568.9.2c-24.8 1.7-54.9 4.8-55.7 5.6-.4.4-.3 2.3.2 4.2 3 10.3 6.4 39.7 8 69.5.6 11 1.5 20.4 2 20.9.6.6 2 .5 3.7-.3 6.7-3.1 42.9-31.6 44.9-35.4.6-1.2 2.6-7.2 4.4-13.2 1.7-6.1 5.2-16.6 7.7-23.5 2.5-6.9 5.6-16.2 6.9-20.8l2.3-8.2-6.2.1c-3.4.1-11.6.6-18.2 1.1zm-140.3 11.5c-1.2.2-2.6 1.2-3.1 2.2-.5.9-3.9 11.8-7.6 24.1-10.4 35.5-14.2 45.7-18.1 49.1-2.2 1.9 2.9 1.2-142.3 19.4-124.6 15.7-131.9 16.1-138.8 9.2-3.7-3.7-3.8-8.3-.4-31.2 1.8-11.6 3.4-26.1 3.8-32.4l.6-11.4-9.4.7c-14.2 1-41.4 3.7-41.8 4.1-.2.2.9 6.4 2.4 13.7 5.6 28 5.6 46.6 0 81.3-3.1 19.3-3 21.9.7 22.3 1.5.2 4.8-.6 7.4-1.7 2.8-1.3 11.6-3.1 22.1-4.6 9.6-1.4 20-3.1 23.1-3.9 7.7-1.9 10.4-2.3 34.8-4.6 11.6-1.1 24.2-2.6 28-3.4 3.8-.8 12.8-1.9 19.9-2.5 7.2-.6 18.9-2 26-3.1 17.7-2.6 38.7-4.8 52-5.5 16.6-.9 69.9-10.7 84.5-15.5 14-4.7 17.6-7.5 25.5-19.9 6.9-10.6 13.1-24.5 23-51.1 4.8-12.9 10-26.3 11.6-29.8 3.1-6.8 3.1-6.8-3.9-5.5z"/><path d="M1056 364.6c-49.9 4.6-66.1 6.4-69.5 7.8-3.1 1.3-3.5 1.9-3.5 5.3 0 5.8-3.6 29-7.5 48.3-1.9 9.6-3.2 17.7-2.8 18 .8.7 91.6-11.3 94.4-12.4 3.4-1.4 9-17.2 18.9-53.5 2.2-7.9 4-14.8 4-15.3 0-1.2-5.2-.9-34 1.8zm208.5 5.1c-3.2 7.9-11.2 31.2-11.7 33.9-.2 1.6.2 1.8 2.7 1.6 5.2-.7 8.9-2.7 14.1-8.1 5.9-6 10.4-14.2 10.4-18.9 0-6.3-6.6-15.2-11.3-15.2-.9 0-2.6 2.7-4.2 6.7zm-374 10.3c-45.1 4.4-83.8 8-86 8.2l-4 .3-.7 11c-.4 6-2.1 20.3-3.8 31.6-3.4 23.3-3.6 28.1-1.5 29.9 4.7 3.9 22.8 3 77.5-4 44.4-5.7 58.1-7.3 77.4-9.5 7.7-.8 14.5-2 15.1-2.5 3-2.5 12.5-53.6 12.5-67 0-5.6-.2-6-2.2-5.9-1.3.1-39.2 3.6-84.3 7.9zm-248 15.7c-11.2.6-23 2.4-25.2 3.9-2.6 1.7-13.9 24.4-24.8 49.9-10 23.4-15.9 34-20.9 37.6-7.5 5.5-23.5 9.7-45.1 11.8-16.4 1.6-96.3 2.4-134 1.3-18.1-.5-33.1-.9-33.2-.8-.5.4 34.1 32.1 34.8 31.9.4-.2 7.2-.7 15.2-1.2 26.1-1.8 49.4.6 86.7 8.7 20.7 4.5 22.1 4.7 36.8 4.6 13.8-.2 15.2 0 15.2 1.5 0 5.9 3.3 34.1 4.9 41.6 4.1 19.8 13.4 37.7 22.9 44 12.4 8.2 44 12 78.7 9.6 24.5-1.7 30.1-2.7 37.5-6.3 9.4-4.6 21.2-16.7 26.8-27.4 16.4-31.8 23.9-90.9 15.6-123.2-3.4-13-9-30-12.9-39.3-10.5-24.4-30.3-43.1-49.5-46.7-6.5-1.3-21.1-2-29.5-1.5zm45.5 39.9c4.1 1.2 6.7 2.9 11 7.2 7.1 7.2 11 14.1 15.4 27.3 5.5 16.4 6.9 28 6.3 50.4-.6 21.6-2.3 32.5-7.2 47.2-9.6 28.7-24.1 45.2-39.9 45.3-6.7 0-12.2-2.8-18.9-9.8-8.4-8.9-14.6-22.9-18.4-41.4-2.2-10.7-2.5-46.6-.5-57.8 6.4-35.7 19.3-59.5 36.5-67.6 6.1-2.8 8.5-2.9 15.7-.8z"/><path d="M9.7 420.4c-2.1.8-4.7 2.2-5.8 3.2-5.8 5.2-4.5 20.8 1.9 23.2 1.5.6 13.7 1.3 27.2 1.7 42.3 1 117.7 4.2 362 15.5 47.6 2.2 97.1 4.5 110 5.1 27.2 1.3 62.1.8 66.3-.9 1.7-.7 3.4-2.6 4.2-4.7 1.5-3.5 2-11.1.9-14-2-5.1-17.3-7.9-48.4-8.9-52.3-1.8-138.3-5.5-373.5-16.1-67.7-3-129.3-5.5-136-5.5-2.7.1-6.7.7-8.8 1.4zm31.9 39.5c-3.5 3.9-4.5 22.9-2.6 51.7 1.7 26.6 5.5 42.5 14.6 60.6 6.6 13.2 15.9 22.3 27.1 26.6 4.4 1.7 12.6 4.1 18.4 5.2 9.3 1.9 12.8 2.1 33.4 1.8 22.2-.4 23.3-.6 30.5-3.2 4.1-1.6 11.9-5.1 17.4-7.9 16-8.1 22-16 32.6-42.2 7.1-17.6 8-19 12.7-21 2-.9 5.2-2.7 7.1-4.2 4.3-3.2 13.5-4.4 27.8-3.6 13.2.8 19.4-.1 19.4-2.8 0-3.3-1.8-5.9-11.6-16.5l-9.3-10-30.3-2.3c-121.6-9-160.5-15.5-177.1-29.9-5.3-4.6-7.5-5.1-10.1-2.3z"/><path d="M60.5 459.5c2.7 2.2 18 6.9 30.5 9.4 34.2 6.8 96.5 13.1 173.5 17.5 149.5 8.6 247.9 9 285.5 1.2 7.6-1.6 16-5 16-6.4 0-.5-12.5-1.2-27.7-1.6-69.9-1.7-280-11.4-391.8-18.2-23.1-1.4-52.3-2.7-65-3-21.1-.5-22.8-.4-21 1.1zm219.3 45.6c5.1 5.7 11.8 13.2 14.9 16.7l5.8 6.2 20.5 1c18.1.9 29.7 1.7 51.7 3.7 3.4.3 6.9.3 7.8-.1 2-.7 3.8 1.2-17.8-18.9l-16.6-15.4-30.8-1.2c-16.9-.6-33.9-1.4-37.7-1.7l-7-.6 9.2 10.3z"/></svg>