<?xml version="1.0" ?><svg id="Outline" viewBox="0 0 512 512" xmlns="http://www.w3.org/2000/svg"><defs><style>.cls-1{fill:#5fdd5a;}</style></defs><path class="cls-1" d="M259,129.37a35.47,35.47,0,0,0-36.45,1.74l-70.25,46.73H98.74a40.55,40.55,0,0,0-40.49,40.5v73a40.54,40.54,0,0,0,40.49,40.49h53.6l70.25,46.74A35.52,35.52,0,0,0,277.78,349V160.68A35.46,35.46,0,0,0,259,129.37ZM255.11,349a12.84,12.84,0,0,1-20,10.69l-73.1-48.64a11.33,11.33,0,0,0-6.28-1.9h-57a17.83,17.83,0,0,1-17.81-17.81v-73a17.83,17.83,0,0,1,17.81-17.82h57a11.33,11.33,0,0,0,6.28-1.9L235.15,150a12.84,12.84,0,0,1,20,10.69Z"/><path style="fill:#9e9e9e;" class="cls-1" d="M390,256.17l35.5-35.49a11.34,11.34,0,0,0-16-16L374,240.13l-36.3-36.29a11.33,11.33,0,1,0-16,16l36.29,36.3-35.49,35.49a11.34,11.34,0,0,0,16,16L374,272.2l34.69,34.69a11.34,11.34,0,1,0,16-16Z"/></svg>