<?xml version="1.0" standalone="no"?>
<!DOCTYPE svg PUBLIC "-//W3C//DTD SVG 20010904//EN"
 "http://www.w3.org/TR/2001/REC-SVG-20010904/DTD/svg10.dtd">
<svg version="1.0" xmlns="http://www.w3.org/2000/svg"
 width="1280.000000pt" height="641.000000pt" viewBox="0 0 1280.000000 641.000000"
 preserveAspectRatio="xMidYMid meet">
<metadata>
Created by potrace 1.15, written by Peter Selinger 2001-2017
</metadata>
<g transform="translate(0.000000,641.000000) scale(0.100000,-0.100000)"
fill="#000000" stroke="none">
<path d="M6645 6404 c-786 -23 -1721 -75 -2205 -125 -187 -19 -478 -80 -662
-139 -206 -66 -318 -193 -600 -680 -206 -356 -297 -516 -393 -695 -51 -93
-115 -205 -143 -249 -29 -43 -52 -83 -52 -88 0 -12 47 -2 75 17 11 7 71 111
134 232 150 285 400 745 464 853 150 253 300 431 418 498 146 83 266 92 1227
92 1249 0 2057 -35 2677 -115 178 -23 256 -72 314 -195 25 -53 26 -62 26 -230
0 -96 -6 -213 -13 -260 -69 -444 -154 -946 -168 -981 -27 -69 -59 -105 -121
-135 -56 -26 -64 -27 -208 -25 -104 1 -164 -3 -200 -13 -27 -8 -167 -38 -310
-66 -587 -117 -1175 -268 -1490 -383 -204 -75 -261 -111 -332 -208 l-46 -62
-306 7 c-487 10 -2898 89 -3886 127 -159 6 -310 14 -335 18 l-45 7 1 45 c0 62
41 128 112 184 64 51 186 102 385 161 70 21 123 40 118 42 -16 5 -376 -93
-530 -144 -136 -45 -218 -85 -299 -144 -32 -23 -52 -49 -74 -96 l-31 -65 2
-202 c1 -111 6 -249 12 -305 13 -136 92 -565 120 -650 12 -37 23 -73 25 -80 4
-15 46 -32 80 -32 l25 0 -22 29 c-18 25 -21 39 -17 106 3 73 5 79 38 108 l34
30 165 -6 166 -6 32 -35 c30 -33 33 -41 33 -101 0 -40 -6 -78 -17 -100 -9 -19
-15 -37 -12 -39 2 -2 544 -30 1204 -60 1217 -57 2713 -126 2722 -126 3 0 -7
14 -22 32 -25 29 -27 38 -23 104 3 59 8 77 27 98 44 46 68 50 239 37 265 -20
277 -27 277 -150 0 -69 -3 -83 -22 -103 -13 -14 -23 -28 -23 -33 0 -7 218 -1
226 7 1 2 -6 190 -17 418 -28 572 -20 750 40 885 52 117 150 173 447 255 471
129 951 204 1724 271 135 11 246 22 248 24 2 2 -18 31 -43 66 -35 48 -45 69
-41 89 3 14 44 255 91 535 173 1027 204 1160 285 1228 91 77 240 88 1145 91
598 1 668 -1 750 -17 308 -61 406 -149 570 -507 53 -116 327 -780 406 -983
l34 -88 217 3 c119 2 219 6 223 10 3 3 -23 48 -58 100 -101 147 -198 314 -426
731 -290 533 -370 665 -434 715 -71 57 -321 163 -502 213 -128 35 -458 98
-670 128 -622 88 -1149 120 -2035 125 -338 2 -664 2 -725 0z m-5958 -2935 c59
-28 129 -108 170 -195 35 -73 36 -79 37 -197 1 -118 0 -124 -32 -189 -63 -130
-178 -201 -289 -178 -133 28 -234 149 -269 324 -40 193 53 393 208 447 61 21
111 18 175 -12z m4394 -175 c69 -38 134 -111 176 -199 l35 -75 -3 -122 c-4
-115 -6 -126 -33 -173 -16 -27 -55 -76 -86 -107 -46 -45 -69 -60 -115 -74 -70
-20 -164 -15 -215 11 -53 27 -154 134 -186 195 -25 49 -28 68 -32 177 -4 114
-3 124 22 178 48 106 132 188 215 212 68 19 162 9 222 -23z"/>
<path d="M4390 6013 c-301 -8 -496 -22 -560 -42 -224 -70 -372 -273 -810
-1111 -155 -298 -194 -384 -175 -388 8 -2 92 2 187 8 266 18 1298 24 1713 11
1069 -35 1795 -86 2320 -162 393 -57 516 -54 558 13 19 29 32 97 106 543 80
483 83 505 84 695 2 287 -4 290 -523 345 -403 42 -763 59 -1699 80 -614 14
-908 16 -1201 8z"/>
<path d="M9358 5923 c-49 -2 -88 -6 -88 -9 0 -7 45 -243 169 -884 135 -697
140 -724 153 -735 9 -8 57 -9 168 -4 372 19 570 30 638 36 l74 6 -7 46 c-4 25
-22 125 -40 221 -19 96 -57 294 -85 440 -74 388 -160 811 -165 820 -28 45
-476 79 -817 63z"/>
<path d="M8505 5909 c-132 -7 -244 -28 -293 -53 -40 -21 -66 -52 -58 -73 9
-21 69 -389 141 -865 31 -200 59 -366 63 -370 4 -4 32 -12 61 -18 125 -24 171
-81 171 -213 l0 -77 28 0 c123 1 797 41 803 47 9 9 -157 910 -292 1581 l-10
52 -242 -2 c-133 0 -300 -4 -372 -9z"/>
<path d="M10250 5834 c0 -11 95 -518 191 -1019 50 -258 94 -474 99 -479 11
-11 424 10 446 22 10 6 -24 99 -145 402 -322 802 -378 913 -531 1043 -41 35
-60 45 -60 31z"/>
<path d="M8087 5572 c-15 -70 -41 -203 -57 -297 -37 -207 -180 -1053 -180
-1060 0 -3 18 -5 41 -5 34 0 40 3 35 18 -13 47 -17 109 -11 163 6 50 13 66 40
93 39 40 55 43 213 52 110 6 122 9 122 26 0 23 -169 1130 -173 1134 -2 2 -15
-54 -30 -124z"/>
<path d="M3405 4384 c-33 -2 -170 -8 -305 -14 -320 -15 -402 -24 -513 -60
-149 -47 -408 -114 -792 -205 -804 -191 -1026 -257 -1152 -340 -49 -32 -84
-77 -71 -90 7 -7 319 -20 1183 -50 700 -24 3169 -105 3206 -105 11 0 29 18 44
45 66 111 199 188 494 285 314 104 880 249 1294 331 111 22 203 41 205 43 1 2
-32 9 -75 15 -304 44 -902 86 -1788 127 -306 14 -1563 27 -1730 18z"/>
<path d="M11505 4314 c-71 -7 -188 -16 -259 -21 l-130 -8 80 -67 79 -68 80 0
c44 0 322 -9 618 -21 296 -11 553 -19 570 -17 23 2 -15 17 -143 55 -220 66
-348 97 -525 127 -196 34 -223 35 -370 20z"/>
<path d="M10275 4259 c-313 -15 -595 -28 -625 -28 l-55 -1 62 -62 61 -61 249
11 c136 7 435 17 663 23 228 5 444 13 480 16 l64 5 -69 64 -70 63 -95 -1 c-52
0 -351 -13 -665 -29z"/>
<path d="M9437 4222 c-32 -2 -335 -16 -674 -31 l-616 -28 -21 -28 c-12 -16
-32 -49 -46 -74 -28 -52 -63 -64 -106 -36 -48 31 -19 105 42 105 12 0 28 7 35
16 12 15 4 16 -96 9 -61 -4 -114 -10 -118 -14 -12 -12 9 -56 55 -118 l42 -56
76 6 c41 4 262 22 490 41 228 19 546 44 705 56 160 11 323 23 363 26 l73 6
-62 56 c-34 32 -67 59 -73 62 -6 3 -37 4 -69 2z"/>
<path d="M11286 3778 c-4 -178 -11 -356 -16 -397 -8 -70 -10 -75 -58 -125 -83
-84 -202 -291 -202 -351 0 -11 12 -15 44 -15 41 0 50 6 114 64 85 78 152 111
260 126 145 21 241 -2 329 -80 45 -39 48 -40 119 -40 73 0 447 30 651 53 l108
12 12 70 c7 39 17 171 23 295 5 124 15 293 20 375 14 208 13 250 -6 265 -18
16 -136 22 -754 44 -239 9 -480 18 -536 21 l-101 5 -7 -322z"/>
<path d="M10505 4083 c-134 -3 -556 -22 -678 -29 -84 -6 -97 -9 -92 -23 11
-36 45 -235 59 -352 25 -205 27 -241 40 -572 7 -174 15 -320 19 -323 10 -10
1067 92 1078 104 4 4 22 43 39 87 46 113 111 220 186 304 63 71 64 72 65 134
1 34 4 144 8 245 3 100 5 182 3 182 -2 0 -15 -9 -31 -21 -26 -19 -39 -20 -154
-17 -108 3 -128 6 -147 23 -18 16 -21 27 -17 59 10 70 30 81 169 84 110 3 123
2 149 -17 15 -12 29 -21 31 -21 2 0 1 35 -2 77 l-5 78 -310 0 c-170 1 -355 0
-410 -2z"/>
<path d="M9370 4023 c-261 -15 -1234 -93 -1377 -110 -29 -3 -53 -9 -53 -12 0
-3 11 -191 25 -416 13 -226 28 -517 31 -648 l7 -238 41 6 c51 7 979 95 1366
130 157 13 305 28 329 31 l44 6 -6 296 c-7 331 -38 712 -58 712 -5 0 -9 -6 -9
-13 0 -8 -12 -24 -26 -38 -24 -23 -32 -24 -156 -24 l-130 0 -29 33 c-33 37
-35 51 -13 98 21 44 41 49 186 49 107 0 118 -2 140 -22 33 -31 37 -29 28 15
-5 20 -13 63 -20 95 l-11 57 -127 -2 c-70 -1 -152 -3 -182 -5z"/>
<path d="M7730 3893 c-19 -2 -116 -10 -215 -19 -195 -17 -540 -54 -725 -79
-416 -55 -918 -170 -1127 -257 -138 -57 -196 -143 -215 -323 -16 -148 14
-1041 37 -1097 7 -18 25 -23 120 -33 81 -9 153 -38 204 -81 24 -21 46 -33 51
-28 5 5 25 47 45 93 138 324 295 575 464 741 134 132 232 176 447 200 122 14
178 5 280 -44 125 -60 199 -159 292 -388 14 -34 8 -34 317 -5 l230 22 3 90 c6
154 -32 953 -54 1158 l-6 57 -56 -2 c-32 0 -73 -3 -92 -5z"/>
<path d="M11405 2997 c-181 -39 -239 -126 -434 -647 -79 -209 -196 -447 -258
-525 -62 -76 -116 -113 -229 -153 -130 -47 -129 -45 -128 -139 1 -93 12 -150
66 -343 45 -162 65 -204 133 -272 58 -58 104 -81 220 -109 81 -19 110 -21 285
-16 175 4 204 7 285 31 188 56 292 128 353 244 40 76 46 96 91 317 56 272 65
377 58 709 -8 419 -56 727 -131 841 -40 61 -180 89 -311 62z m59 -312 c106
-51 203 -233 252 -474 24 -118 30 -429 10 -577 -36 -275 -134 -491 -249 -551
-47 -24 -122 -19 -168 12 -88 58 -171 224 -215 430 -35 162 -35 571 0 720 79
335 225 509 370 440z"/>
<path d="M6716 2920 c-86 -14 -195 -72 -277 -148 -66 -61 -182 -200 -208 -249
l-11 -22 253 2 c249 2 253 1 319 -24 271 -105 408 -288 553 -736 20 -62 40
-113 44 -113 11 0 20 73 27 225 13 274 -49 590 -161 820 -60 123 -120 195
-190 226 -52 23 -254 34 -349 19z"/>
<path d="M12405 2918 c-248 -17 -549 -48 -557 -56 -4 -4 -3 -23 2 -42 30 -103
64 -397 80 -695 6 -110 15 -204 20 -209 6 -6 20 -5 37 3 67 31 429 316 449
354 6 12 26 72 44 132 17 61 52 166 77 235 25 69 56 162 69 208 l23 82 -62 -1
c-34 -1 -116 -6 -182 -11z"/>
<path d="M11002 2803 c-12 -2 -26 -12 -31 -22 -5 -9 -39 -118 -76 -241 -104
-355 -142 -457 -181 -491 -22 -19 29 -12 -1423 -194 -1246 -157 -1319 -161
-1388 -92 -37 37 -38 83 -4 312 18 116 34 261 38 324 l6 114 -94 -7 c-142 -10
-414 -37 -418 -41 -2 -2 9 -64 24 -137 56 -280 56 -466 0 -813 -31 -193 -30
-219 7 -223 15 -2 48 6 74 17 28 13 116 31 221 46 96 14 200 31 231 39 77 19
104 23 348 46 116 11 242 26 280 34 38 8 128 19 199 25 72 6 189 20 260 31
177 26 387 48 520 55 166 9 699 107 845 155 140 47 176 75 255 199 69 106 131
245 230 511 48 129 100 263 116 298 31 68 31 68 -39 55z"/>
<path d="M10560 2764 c-499 -46 -661 -64 -695 -78 -31 -13 -35 -19 -35 -53 0
-58 -36 -290 -75 -483 -19 -96 -32 -177 -28 -180 8 -7 916 113 944 124 34 14
90 172 189 535 22 79 40 148 40 153 0 12 -52 9 -340 -18z"/>
<path d="M12645 2713 c-32 -79 -112 -312 -117 -339 -2 -16 2 -18 27 -16 52 7
89 27 141 81 59 60 104 142 104 189 0 63 -66 152 -113 152 -9 0 -26 -27 -42
-67z"/>
<path d="M8905 2610 c-451 -44 -838 -80 -860 -82 l-40 -3 -7 -110 c-4 -60 -21
-203 -38 -316 -34 -233 -36 -281 -15 -299 47 -39 228 -30 775 40 444 57 581
73 774 95 77 8 145 20 151 25 30 25 125 536 125 670 0 56 -2 60 -22 59 -13 -1
-392 -36 -843 -79z"/>
<path d="M6425 2453 c-112 -6 -230 -24 -252 -39 -26 -17 -139 -244 -248 -499
-100 -234 -159 -340 -209 -376 -75 -55 -235 -97 -451 -118 -164 -16 -963 -24
-1340 -13 -181 5 -331 9 -332 8 -5 -4 341 -321 348 -319 4 2 72 7 152 12 261
18 494 -6 867 -87 207 -45 221 -47 368 -46 138 2 152 0 152 -15 0 -59 33 -341
49 -416 41 -198 134 -377 229 -440 124 -82 440 -120 787 -96 245 17 301 27
375 63 94 46 212 167 268 274 164 318 239 909 156 1232 -34 130 -90 300 -129
393 -105 244 -303 431 -495 467 -65 13 -211 20 -295 15z m455 -399 c41 -12 67
-29 110 -72 71 -72 110 -141 154 -273 55 -164 69 -280 63 -504 -6 -216 -23
-325 -72 -472 -96 -287 -241 -452 -399 -453 -67 0 -122 28 -189 98 -84 89
-146 229 -184 414 -22 107 -25 466 -5 578 64 357 193 595 365 676 61 28 85 29
157 8z"/>
<path d="M97 2206 c-21 -8 -47 -22 -58 -32 -58 -52 -45 -208 19 -232 15 -6
137 -13 272 -17 423 -10 1177 -42 3620 -155 476 -22 971 -45 1100 -51 272 -13
621 -8 663 9 17 7 34 26 42 47 15 35 20 111 9 140 -20 51 -173 79 -484 89
-523 18 -1383 55 -3735 161 -677 30 -1293 55 -1360 55 -27 -1 -67 -7 -88 -14z"/>
<path d="M416 1811 c-35 -39 -45 -229 -26 -517 17 -266 55 -425 146 -606 66
-132 159 -223 271 -266 44 -17 126 -41 184 -52 93 -19 128 -21 334 -18 222 4
233 6 305 32 41 16 119 51 174 79 160 81 220 160 326 422 71 176 80 190 127
210 20 9 52 27 71 42 43 32 135 44 278 36 132 -8 194 1 194 28 0 33 -18 59
-116 165 l-93 100 -303 23 c-1216 90 -1605 155 -1771 299 -53 46 -75 51 -101
23z"/>
<path d="M605 1815 c27 -22 180 -69 305 -94 342 -68 965 -131 1735 -175 1495
-86 2479 -90 2855 -12 76 16 160 50 160 64 0 5 -125 12 -277 16 -699 17 -2800
114 -3918 182 -231 14 -523 27 -650 30 -211 5 -228 4 -210 -11z"/>
<path d="M2798 1359 c51 -57 118 -132 149 -167 l58 -62 205 -10 c181 -9 297
-17 517 -37 34 -3 69 -3 78 1 20 7 38 -12 -178 189 l-166 154 -308 12 c-169 6
-339 14 -377 17 l-70 6 92 -103z"/>
</g>
</svg>
